<svg width="67" height="44" viewBox="0 0 67 44" fill="none" xmlns="http://www.w3.org/2000/svg">
<path d="M19.8572 43.1017C30.3589 43.1017 38.8722 34.5884 38.8722 24.0867C38.8722 13.5851 30.3589 5.07178 19.8572 5.07178C9.35556 5.07178 0.842285 13.5851 0.842285 24.0867C0.842285 34.5884 9.35556 43.1017 19.8572 43.1017Z" fill="#DF291E"/>
<path fill-rule="evenodd" clip-rule="evenodd" d="M19.8573 5.58216C9.63774 5.58216 1.35316 13.8667 1.35316 24.0863C1.35316 34.3058 9.63774 42.5904 19.8573 42.5904C30.0768 42.5904 38.3614 34.3058 38.3614 24.0863C38.3614 13.8667 30.0768 5.58216 19.8573 5.58216ZM0.331543 24.0863C0.331543 13.3025 9.07352 4.56055 19.8573 4.56055C30.6411 4.56055 39.383 13.3025 39.383 24.0863C39.383 34.8701 30.6411 43.612 19.8573 43.612C9.07352 43.612 0.331543 34.8701 0.331543 24.0863Z" fill="black"/>
<path d="M19.1872 34.3516C19.1872 34.3516 23.8671 33.8986 27.2101 36.7461C28.8473 38.1407 29.3451 40.6886 29.3451 40.6886L24.9768 42.6262L19.8335 43.2955C19.8335 43.2955 17.9664 43.2955 14.6197 42.6262C11.273 41.9568 9.81104 40.4244 9.81104 40.4244C9.81104 40.4244 10.5861 38.3636 12.0488 36.9833C14.8093 34.1143 19.1872 34.3516 19.1872 34.3516Z" fill="black"/>
<path d="M19.2979 35.2071C19.2979 35.2071 23.8791 35.0151 26.3548 37.1566C27.9735 38.5571 28.3411 40.5827 28.3411 40.5827C28.3411 40.5827 26.6149 41.481 24.3075 42.0623C22.0001 42.6436 19.7455 42.6259 19.7455 42.6259C19.7455 42.6259 17.5789 42.6259 15.2715 42.0623C12.964 41.4986 10.9736 40.3537 10.9736 40.3537C10.9736 40.3537 11.3322 38.812 12.959 37.316C15.4972 34.9818 19.2979 35.2071 19.2979 35.2071Z" fill="white"/>
<path d="M16.6934 42.3405V37.6328L17.5213 37.8225V42.3405H16.6934Z" fill="#C4C4C4"/>
<path d="M19.2421 39.827C19.5868 39.827 19.8663 39.5474 19.8663 39.2025C19.8663 38.8577 19.5868 38.5781 19.2421 38.5781C18.8972 38.5781 18.6177 38.8577 18.6177 39.2025C18.6177 39.5474 18.8972 39.827 19.2421 39.827Z" fill="black"/>
<path d="M22.2668 39.827C22.6117 39.827 22.8912 39.5474 22.8912 39.2025C22.8912 38.8577 22.6117 38.5781 22.2668 38.5781C21.9221 38.5781 21.6426 38.8577 21.6426 39.2025C21.6426 39.5474 21.9221 39.827 22.2668 39.827Z" fill="black"/>
<path d="M19.2421 41.9643C19.5868 41.9643 19.8663 41.6846 19.8663 41.3398C19.8663 40.9949 19.5868 40.7153 19.2421 40.7153C18.8972 40.7153 18.6177 40.9949 18.6177 41.3398C18.6177 41.6846 18.8972 41.9643 19.2421 41.9643Z" fill="black"/>
<path d="M22.2668 41.9643C22.6117 41.9643 22.8912 41.6846 22.8912 41.3398C22.8912 40.9949 22.6117 40.7153 22.2668 40.7153C21.9221 40.7153 21.6426 40.9949 21.6426 41.3398C21.6426 41.6846 21.9221 41.9643 22.2668 41.9643Z" fill="black"/>
<path d="M13.8949 40.4551H13.0068V42.08H13.8949V40.4551Z" fill="black"/>
<path d="M16.3827 35.2012H15.4946V42.771H16.3827V35.2012Z" fill="black"/>
<path d="M26.3442 40.4551H25.4561V42.08H26.3442V40.4551Z" fill="black"/>
<path d="M10.7056 23.3441V16.2299L14.2137 15.2685L21.6146 14.7397L29.0153 15.9414L29.4479 20.3158V28.938L25.7918 34.6587L21.6146 36.281H17.5968L13.0726 33.805L10.7056 28.938V23.3441Z" fill="#ECAC6B"/>
<path d="M14.3821 18.3735L13.6255 17.5304L15.3598 17.0532L16.7435 17.5304L16.5023 17.6666C16.5023 17.6666 16.0499 17.4504 15.3598 17.6666C14.6697 17.8827 14.3821 18.3735 14.3821 18.3735Z" fill="#D0904F"/>
<path d="M23.3854 18.3735L22.6289 17.5304L24.3632 17.0532L25.7468 17.5304L25.5056 17.6666C25.5056 17.6666 25.0533 17.4504 24.3632 17.6666C23.6731 17.8827 23.3854 18.3735 23.3854 18.3735Z" fill="#D0904F"/>
<path d="M18.1707 0.522461L19.6582 1.58522H20.03L21.1989 0.522461H23.2176L24.9176 2.48856L26.7237 1.58522C27.0249 1.76235 27.68 2.1166 27.8926 2.1166C28.105 2.1166 28.7957 3.03766 29.1145 3.49818L31.1331 4.24212L31.7175 6.10197L30.7612 7.43037L29.3801 8.1743V16.517L27.1487 15.5605L23.2176 14.976H19.1269L13.3895 15.5605L10.5739 16.517V9.29019L10.202 8.1743L8.28955 6.36764V4.98606L9.56455 4.24212L11.052 3.49818L11.7958 2.1166L12.8583 1.58522L14.5051 2.1166L15.1426 1.58522L16.2582 0.947566L18.1707 0.522461Z" fill="white" stroke="black" stroke-width="0.0176141"/>
<path d="M11.4019 7.98486V15.1045L12.7514 14.778C11.869 13.1931 11.4019 7.98486 11.4019 7.98486Z" fill="#C4C4C4"/>
<path fill-rule="evenodd" clip-rule="evenodd" d="M15.3037 1.02227C15.7468 0.530778 16.4162 0.0224609 17.4538 0.0224609C18.4698 0.0224609 19.0726 0.442385 19.4684 0.860216C19.5878 0.986245 19.7097 1.13849 19.7971 1.24782C19.8275 1.28573 19.8536 1.31849 19.8742 1.3432C19.9073 1.30462 19.9413 1.26279 19.982 1.21258C19.9998 1.19062 20.0188 1.16706 20.0398 1.14146C20.109 1.05669 20.1904 0.959436 20.2844 0.860216C20.6751 0.44774 21.2675 0.0224609 22.2519 0.0224609C23.2463 0.0224609 23.8842 0.48961 24.3047 0.975336C24.509 1.21149 24.6645 1.45461 24.781 1.63711L24.784 1.6418C24.8435 1.73493 24.8884 1.80541 24.9289 1.86217C24.9353 1.87104 24.9411 1.87895 24.9464 1.88595C24.9633 1.88304 24.9846 1.87869 25.0108 1.87222C25.132 1.84233 25.2749 1.79004 25.4609 1.72197L25.4612 1.72183C25.5023 1.70678 25.5454 1.69097 25.591 1.67445C26.0398 1.51167 26.7076 1.2795 27.3431 1.4331C27.9721 1.58511 28.3353 1.96148 28.5837 2.31356C28.6668 2.43156 28.7459 2.56037 28.8118 2.66789L28.812 2.66796V2.66798V2.66803L28.8121 2.66833C28.8371 2.70904 28.8602 2.74668 28.8808 2.77953C28.9652 2.91309 29.0247 2.99172 29.0778 3.03988C29.0778 3.03979 29.0786 3.04027 29.0804 3.04124C29.0885 3.04559 29.116 3.06021 29.176 3.08208C29.2599 3.11256 29.367 3.14343 29.5067 3.18224L29.5586 3.19666C29.819 3.26886 30.1554 3.36208 30.4858 3.50627C30.8415 3.66141 31.2172 3.88611 31.5154 4.23651C31.819 4.59337 32.0219 5.05678 32.0642 5.65006C32.1523 6.88597 31.4284 7.61794 30.7514 8.01193C30.4155 8.20749 30.0795 8.32909 29.8308 8.40184C29.8105 8.40779 29.7906 8.41339 29.7714 8.41871V28.7719V28.8187L29.7617 28.8647C29.4683 30.2383 28.63 32.2711 27.0581 33.9613C25.4757 35.663 23.1473 37.0176 19.9107 36.9896C16.6776 36.9614 14.3682 35.5968 12.8072 33.9029C11.2566 32.2202 10.4434 30.2136 10.167 28.8608L10.158 28.8168V28.7719V8.41996C10.1241 8.411 10.0885 8.40122 10.0512 8.39057C9.77704 8.31222 9.40753 8.18404 9.04494 7.9856C8.68519 7.78862 8.30561 7.50798 8.04365 7.11226C7.77308 6.70351 7.64438 6.19529 7.76183 5.59611C7.87098 5.03929 8.09561 4.61807 8.395 4.30276C8.69127 3.99072 9.03954 3.8047 9.36367 3.68306C9.63849 3.57993 9.91478 3.51715 10.1274 3.46882H10.1275L10.1275 3.4688C10.1606 3.46128 10.1922 3.45411 10.222 3.44719C10.3399 3.41978 10.424 3.39794 10.4862 3.37575C10.5145 3.36565 10.5304 3.35808 10.5378 3.35431C10.5617 3.3265 10.5918 3.27524 10.6349 3.16246C10.6462 3.13306 10.6601 3.09392 10.6761 3.04883L10.6761 3.04879L10.6761 3.04878V3.04872L10.6762 3.04871C10.7143 2.94137 10.7644 2.8004 10.8189 2.67731C11.001 2.26567 11.3123 1.82449 11.9986 1.47015C12.7614 1.07637 13.4689 1.27534 13.9682 1.49245C14.0934 1.5469 14.2099 1.60439 14.3121 1.65571L14.3726 1.68616L14.3727 1.68617C14.4513 1.72581 14.5175 1.75918 14.5797 1.78785C14.6173 1.80526 14.6478 1.81818 14.6722 1.82764C14.7044 1.79046 14.7437 1.73997 14.7945 1.67155C14.8156 1.64325 14.8381 1.61245 14.8622 1.57962C14.9772 1.42254 15.1262 1.21918 15.3037 1.02227ZM14.7428 1.84957C14.7429 1.84963 14.742 1.84954 14.7401 1.84919C14.7419 1.84936 14.7428 1.84954 14.7428 1.84957ZM10.6741 7.62664L10.6743 7.6267H10.6743L10.6745 7.62673L11.0461 7.68762V8.06492V15.6805C14.1589 14.702 21.3177 13.5548 28.8835 15.6568V8.06492V7.68315L29.2597 7.62599V7.62594L29.2602 7.6259L29.2604 7.62585L29.2608 7.6258L29.262 7.62559L29.2763 7.62314C29.2898 7.62069 29.3115 7.61657 29.3398 7.61058C29.3969 7.5985 29.4806 7.57882 29.5813 7.54928C29.7851 7.48973 30.0493 7.3929 30.3047 7.24421C30.8106 6.94979 31.2337 6.49011 31.1784 5.71314C31.149 5.29994 31.0146 5.01842 30.8392 4.81233C30.6583 4.59977 30.4133 4.44362 30.1309 4.32048C29.8598 4.20222 29.5789 4.12422 29.3099 4.04949L29.2687 4.03804C29.1341 4.00059 28.9939 3.96101 28.8725 3.91687C28.76 3.87592 28.612 3.81369 28.4938 3.70922C28.338 3.5714 28.2212 3.39826 28.1301 3.25386C28.0968 3.20108 28.0667 3.15201 28.0378 3.10498V3.10495C27.9783 3.00781 27.9242 2.91947 27.858 2.82566C27.6802 2.57357 27.4789 2.37974 27.1346 2.29653C26.7969 2.21492 26.3779 2.33396 25.8937 2.50952C25.8581 2.52247 25.8214 2.53591 25.7843 2.54954L25.7839 2.5497C25.5976 2.61818 25.3968 2.69195 25.2234 2.73468C25.1165 2.76105 24.9916 2.7834 24.8646 2.77923C24.7346 2.77496 24.5728 2.74167 24.4299 2.62708C24.3357 2.55151 24.2608 2.45495 24.2062 2.3783C24.152 2.30234 24.0958 2.21422 24.0424 2.13073L24.0422 2.13054V2.13048V2.13036L24.0421 2.13027L24.0324 2.11511C23.9147 1.9306 23.7904 1.73817 23.6332 1.55669C23.3306 1.20716 22.9199 0.910732 22.2519 0.910732C21.5738 0.910732 21.2006 1.18456 20.9289 1.4712C20.8574 1.54675 20.7921 1.62428 20.7276 1.70337C20.7126 1.72153 20.6973 1.74053 20.6816 1.75996L20.6815 1.76023L20.6813 1.76026C20.633 1.81991 20.5816 1.88346 20.5337 1.93828C20.4703 2.01115 20.3892 2.09728 20.2925 2.16624C20.1923 2.23784 20.05 2.30895 19.8716 2.30895C19.6924 2.30895 19.5499 2.23719 19.4494 2.16418C19.3532 2.09439 19.2732 2.00738 19.2114 1.93481C19.1527 1.86622 19.1054 1.80647 19.0599 1.74896V1.74891C18.9889 1.65928 18.9222 1.57505 18.8239 1.4712C18.5574 1.18992 18.1755 0.910732 17.4538 0.910732C16.7533 0.910732 16.3054 1.23758 15.9632 1.61715C15.8188 1.77732 15.7015 1.93719 15.5871 2.09316L15.587 2.09319L15.587 2.09328L15.5869 2.09348C15.5603 2.12971 15.5338 2.16571 15.5073 2.20147C15.4411 2.29052 15.3677 2.38631 15.2917 2.46663C15.2219 2.5404 15.1095 2.64587 14.9558 2.6997C14.7898 2.75783 14.6319 2.73722 14.5226 2.71066C14.4106 2.68344 14.3012 2.63766 14.2074 2.59433C14.1301 2.55863 14.0466 2.51653 13.9668 2.47632L13.9138 2.4496C13.8146 2.39978 13.7159 2.35136 13.6141 2.30708C13.2053 2.12929 12.8143 2.04863 12.4059 2.25949C11.9211 2.50978 11.7415 2.78694 11.631 3.03678C11.5887 3.13237 11.5617 3.20906 11.5312 3.29597L11.5311 3.29601C11.5119 3.3508 11.4912 3.40967 11.4643 3.4799C11.4057 3.63326 11.3195 3.82989 11.1556 3.99328C11.0387 4.10987 10.894 4.17331 10.7846 4.21235C10.6697 4.2534 10.5411 4.28495 10.4229 4.31241C10.3876 4.32062 10.3524 4.32869 10.3172 4.33672H10.3172C10.1021 4.38586 9.88961 4.43442 9.67563 4.51473C9.43314 4.60572 9.2148 4.72923 9.03892 4.91448C8.86614 5.09645 8.71302 5.36022 8.63328 5.76705C8.56184 6.13156 8.63922 6.40301 8.7841 6.62183C8.93757 6.85367 9.1827 7.04839 9.47129 7.20637C9.75706 7.36278 10.0595 7.46912 10.2952 7.53649C10.4119 7.56984 10.5095 7.59289 10.5767 7.60737C10.6103 7.61461 10.6361 7.61967 10.6528 7.62282L10.6648 7.62501L10.6708 7.62608L10.6739 7.62661L10.6741 7.62664ZM28.8835 16.5798C21.1893 14.3729 13.8776 15.6568 11.0461 16.6147V28.7263C11.3032 29.9425 12.0501 31.7707 13.4601 33.3008C14.8766 34.838 16.961 36.0756 19.9184 36.1013C22.8721 36.1268 24.9712 34.9014 26.408 33.3563C27.8379 31.8186 28.6096 29.9644 28.8835 28.7242V16.5798ZM17.5 7.835C17.8512 7.835 18.1718 7.70011 18.4385 7.54187C18.7073 7.38234 18.9579 7.17648 19.1726 6.99033C19.2477 6.92527 19.3164 6.86429 19.3807 6.80736L19.3808 6.80731C19.5124 6.69072 19.625 6.59106 19.7322 6.50792C19.7974 6.45737 19.8464 6.42459 19.8816 6.40482C19.91 6.42032 19.9616 6.45141 20.0415 6.51257C20.1465 6.59275 20.2582 6.69001 20.3903 6.80495V6.805L20.3905 6.80518L20.3908 6.80549C20.4398 6.848 20.4914 6.89293 20.5465 6.94033C20.9212 7.26251 21.4422 7.68946 22.0425 7.8242C22.7406 7.98099 23.2341 7.61791 23.5388 7.34262C23.6049 7.28294 23.6676 7.22214 23.7215 7.16995L23.7461 7.14604C23.8074 7.08681 23.8543 7.04261 23.8953 7.00828C23.9108 7.02084 23.9297 7.03706 23.9521 7.05776C24.0211 7.12181 24.0901 7.19535 24.1759 7.28662L24.1761 7.28671L24.1763 7.28689L24.1768 7.28747C24.2161 7.32935 24.2591 7.37496 24.307 7.42505C24.5883 7.71876 24.9865 8.10464 25.5419 8.29783C26.1489 8.50902 26.7463 8.33554 27.1427 8.15633C27.3477 8.0636 27.5187 7.96047 27.6387 7.88078C27.6989 7.84067 27.7474 7.80587 27.7815 7.78027C27.7986 7.76743 27.8124 7.75686 27.8222 7.7491L27.8344 7.73946L27.8382 7.73631L27.8397 7.73515L27.8404 7.73471L27.8405 7.73449C27.8407 7.73439 27.8407 7.7343 27.5592 7.39086C27.2776 7.0474 27.2778 7.04737 27.2778 7.04728L27.2737 7.05047C27.269 7.0542 27.2609 7.06051 27.2496 7.06895C27.227 7.08587 27.1922 7.11104 27.1471 7.14102C27.0562 7.20147 26.9276 7.27877 26.7768 7.3469C26.4617 7.48941 26.1233 7.55967 25.8336 7.45885C25.4922 7.3401 25.218 7.09221 24.9483 6.81069C24.9155 6.77645 24.8814 6.73993 24.8461 6.70257C24.7501 6.6006 24.6483 6.49237 24.5559 6.40652C24.4361 6.29535 24.2517 6.14146 24.0163 6.0966C23.6956 6.03549 23.4465 6.22652 23.331 6.32239C23.2602 6.38129 23.1904 6.44808 23.1291 6.50725L23.1025 6.53305C23.0481 6.58577 22.9974 6.6349 22.9435 6.68353C22.6925 6.9103 22.4941 7.01526 22.237 6.95752C21.8819 6.8778 21.516 6.60274 21.1255 6.26684C21.082 6.22949 21.0376 6.19076 20.9927 6.15171C20.8536 6.03042 20.7102 5.90562 20.5807 5.80676C20.4269 5.6892 20.1948 5.52699 19.9346 5.50533C19.759 5.49067 19.6059 5.54885 19.5004 5.60175C19.3898 5.6573 19.2836 5.73182 19.1881 5.80591C19.0573 5.90726 18.909 6.03859 18.7651 6.16598L18.7649 6.16607C18.7057 6.21856 18.647 6.27039 18.5908 6.3192C18.3839 6.49864 18.1826 6.66088 17.9853 6.778C17.7859 6.89636 17.6265 6.94672 17.5 6.94672C17.1989 6.94672 16.9948 6.80336 16.7808 6.58933C16.7351 6.54357 16.6925 6.49837 16.6468 6.44983L16.6182 6.41948C16.5645 6.36259 16.5033 6.29845 16.44 6.2405C16.3275 6.13764 16.1237 5.97175 15.843 5.97175C15.5772 5.97175 15.3817 6.11081 15.2568 6.22655C15.143 6.33187 15.0362 6.46776 14.9483 6.5795L14.929 6.60402C14.7246 6.86318 14.5418 7.08054 14.2841 7.20597C14.0419 7.32387 13.6806 7.3373 13.3233 7.29582C13.1546 7.27623 13.0049 7.2466 12.8975 7.22191C12.8441 7.20961 12.8019 7.19867 12.7739 7.19108C12.7599 7.18731 12.7496 7.18437 12.7432 7.18252L12.7367 7.1806L12.7363 7.18051C12.7364 7.18051 12.7365 7.18057 12.6069 7.60538C12.4773 8.03015 12.4774 8.0302 12.4775 8.03024L12.4777 8.03029L12.4783 8.03046L12.4797 8.03085L12.4837 8.0321L12.4967 8.03592C12.5076 8.03902 12.5226 8.04329 12.5415 8.0484C12.5793 8.05866 12.6326 8.07244 12.6983 8.08753C12.8291 8.11764 13.012 8.15389 13.2209 8.17814C13.6191 8.22441 14.1936 8.23782 14.6726 8.00475C15.132 7.78121 15.4256 7.40862 15.621 7.16079L15.6263 7.154C15.7234 7.03085 15.7865 6.9513 15.8412 6.89654C15.8776 6.92994 15.9186 6.97221 15.9724 7.02924L15.9978 7.05619C16.0436 7.10483 16.0968 7.16137 16.1528 7.21742C16.4262 7.49087 16.8459 7.835 17.5 7.835ZM19.9205 6.38622C19.9205 6.38626 19.9197 6.38652 19.9182 6.38698C19.9197 6.3864 19.9205 6.38617 19.9205 6.38622ZM23.9621 6.96004C23.9621 6.96013 23.9609 6.96085 23.9582 6.9619C23.9609 6.9605 23.9621 6.95991 23.9621 6.96004ZM15.8964 6.84905L15.8953 6.84969C15.8961 6.84923 15.8965 6.84905 15.8964 6.84905ZM14.3229 18.028C14.5056 17.7566 14.8324 17.4604 15.2028 17.3789C15.5227 17.3084 15.9936 17.3726 16.5685 18.0641L17.2513 17.4961C16.5193 16.6158 15.7327 16.3526 15.0118 16.5114C14.3414 16.659 13.844 17.1487 13.5861 17.5321L14.3229 18.028ZM23.4227 18.0084C23.428 18.0009 23.4333 17.9935 23.4388 17.9859L23.5011 18.028C23.6838 17.7566 24.0105 17.4604 24.381 17.3789C24.4297 17.3682 24.4819 17.3606 24.5372 17.3578C24.8345 17.3725 25.2141 17.534 25.655 18.0641L25.7089 18.0192C25.7216 18.0338 25.7341 18.0488 25.7468 18.0641L26.4295 17.4961C25.8146 16.7565 25.1611 16.4525 24.5404 16.4684C24.391 16.4646 24.2434 16.4794 24.0982 16.5114C23.4279 16.659 22.9304 17.1487 22.6726 17.5321L23.4094 18.028L23.4161 18.0181L23.4227 18.0084ZM14.2175 21.195C14.2175 21.195 14.2175 21.1948 13.8845 21.1934C13.5515 21.1922 13.5515 21.192 13.5515 21.1918V21.1915V21.1908V21.1887L13.5516 21.1823L13.5518 21.1725L13.5521 21.1621C13.5526 21.1452 13.5536 21.1216 13.5555 21.0923C13.5592 21.0338 13.5663 20.9523 13.5801 20.8551C13.6075 20.6622 13.6624 20.3994 13.7745 20.1325C13.8864 19.8658 14.0613 19.5809 14.3366 19.3628C14.6172 19.1403 14.9827 19.0031 15.4423 19.0075C15.9004 19.0119 16.2637 19.1535 16.5425 19.3764C16.8163 19.5951 16.9909 19.8782 17.1029 20.1429C17.215 20.408 17.2699 20.668 17.2974 20.8588C17.3112 20.9549 17.3183 21.0356 17.322 21.0934C17.3238 21.1223 17.3248 21.1455 17.3253 21.1622C17.3256 21.1707 17.3257 21.1774 17.3258 21.1825L17.3259 21.1888L17.326 21.1908V21.1917V21.192C17.326 21.1922 17.326 21.1924 16.993 21.1934C16.6599 21.1947 16.6599 21.1948 16.6599 21.195V21.194L16.6596 21.1834C16.6593 21.1733 16.6586 21.157 16.6573 21.1356C16.6545 21.0928 16.6491 21.0298 16.6381 20.9535C16.6159 20.799 16.5725 20.5988 16.4895 20.4024C16.4064 20.206 16.2893 20.0267 16.1267 19.8967C15.969 19.7707 15.7513 19.6769 15.4358 19.6737C15.1218 19.6707 14.9062 19.7612 14.7503 19.8849C14.5889 20.0128 14.472 20.1919 14.3886 20.3904C14.3054 20.5886 14.2618 20.7918 14.2395 20.9488C14.2285 21.0264 14.2229 21.0906 14.2202 21.1342C14.2188 21.1561 14.2181 21.1726 14.2178 21.183L14.2175 21.194V21.195ZM22.9193 21.2001C23.2524 21.1968 23.2524 21.1969 23.2524 21.1971V21.1973V21.1976V21.1964L23.2526 21.1867C23.2528 21.1772 23.2531 21.1619 23.2542 21.1416C23.2563 21.1011 23.2609 21.0412 23.2707 20.9688C23.2908 20.8223 23.331 20.6329 23.4101 20.4487C23.489 20.2648 23.6012 20.0984 23.7586 19.9791C23.9115 19.863 24.1273 19.7758 24.446 19.7788C24.7658 19.782 24.9846 19.8725 25.1405 19.9913C25.3004 20.113 25.4138 20.2801 25.4936 20.4623C25.5736 20.6447 25.6146 20.8313 25.6353 20.9754C25.6455 21.0465 25.6504 21.1052 25.6527 21.1448C25.6539 21.1647 25.6545 21.1795 25.6546 21.1888L25.6548 21.1982V21.1987C25.6548 21.1985 25.6548 21.1985 25.9879 21.2001C26.3208 21.2017 26.3208 21.2017 26.3208 21.2015V21.2012V21.2003V21.1982V21.192C26.3208 21.1899 26.3208 21.1876 26.3206 21.185C26.3206 21.1813 26.3206 21.177 26.3204 21.1723C26.3201 21.1561 26.3192 21.1337 26.3176 21.1059C26.3143 21.0504 26.3078 20.9731 26.2945 20.8809C26.2685 20.6983 26.2151 20.4491 26.1038 20.1949C25.9923 19.9404 25.8177 19.6698 25.544 19.4613C25.2664 19.2497 24.906 19.1171 24.4525 19.1127C23.9975 19.1083 23.6352 19.2365 23.3562 19.4482C23.0817 19.6562 22.9081 19.9294 22.798 20.1859C22.6881 20.4422 22.6359 20.6944 22.6109 20.879C22.5982 20.9722 22.5921 21.0506 22.5891 21.1066C22.5877 21.1348 22.587 21.1575 22.5866 21.1739C22.5864 21.182 22.5864 21.1887 22.5864 21.1936V21.1998V21.2019V21.2028V21.2031C22.5864 21.2033 22.5864 21.2035 22.9193 21.2001Z" fill="black"/>
<path d="M10.1931 4.771C9.4204 4.91039 8.80812 5.94092 8.98968 6.25352C8.98968 6.25352 9.86377 7.15311 10.6745 7.24181C10.6745 7.24181 10.1931 6.78568 10.0158 5.92405C9.83842 5.06244 10.1931 4.771 10.1931 4.771Z" fill="#C4C4C4"/>
<path d="M11.4671 21.2671C11.3203 20.6402 11.4671 17.1697 11.4671 17.1697L13.0747 16.6094C13.0747 16.6094 11.7401 27.5625 12.1191 29.2683C12.4981 30.9742 14.8834 34.292 14.8834 34.292C14.6114 34.6208 12.3527 31.7997 11.4671 29.2683C11.4671 29.2683 11.6138 21.8941 11.4671 21.2671Z" fill="#D0904F"/>
<path d="M22.8948 26.5015H16.0767C16.0767 26.5015 16.1676 29.5628 19.5312 29.5628C22.8948 29.5628 22.8948 26.5015 22.8948 26.5015Z" fill="white"/>
<path d="M17.3394 28.6591C18.3395 28.7164 19.1918 28.1781 19.8967 27.8159C19.2271 28.3325 18.8047 28.5966 18.4538 29.2879C17.7966 29.0736 17.3394 28.6591 17.3394 28.6591Z" fill="#C4C4C4"/>
<path d="M14.7977 25.0812C17.4922 23.4528 19.2886 23.7943 19.8498 24.1686C20.8603 23.4387 22.9904 23.6627 24.9094 24.8282C26.8285 25.9936 29.0421 26.4147 29.0421 26.4147C23.5798 29.6311 19.8498 27.6079 19.8498 27.6079C16.6525 29.6492 12.114 27.3365 10.5186 26.1063C10.4603 26.0704 10.4132 26.0322 10.377 25.9936C10.4212 26.0299 10.4685 26.0676 10.5186 26.1063C11.0257 26.4174 12.3812 26.5414 14.7977 25.0812Z" fill="black"/>
<path d="M36.6703 35.092C35.4098 35.2442 34.2869 35.1558 33.3016 34.8268C32.315 34.4875 31.5231 33.9373 30.9261 33.1758C30.329 32.4143 29.9649 31.4894 29.8334 30.4009C29.6511 28.8913 29.7805 27.516 30.2218 26.2751C30.6734 25.0328 31.364 24.0325 32.2934 23.2744C33.2214 22.5059 34.2998 22.0474 35.5284 21.8991C36.6722 21.761 37.5755 21.9436 38.2381 22.4471C38.8993 22.9403 39.2865 23.654 39.3992 24.5886C39.475 25.2149 39.4193 25.7321 39.2321 26.1402C39.0556 26.5471 38.7554 26.7761 38.3318 26.8272C38.0352 26.8631 37.7942 26.8245 37.6086 26.7114C37.4229 26.5983 37.3146 26.4136 37.2836 26.1568C37.2725 26.0643 37.2732 25.8924 37.2859 25.6408C37.3121 25.325 37.3142 25.0747 37.2919 24.89C37.179 23.9554 36.609 23.5502 35.5816 23.6742C34.8825 23.7588 34.2418 24.0602 33.6597 24.5784C33.0775 25.0967 32.6426 25.8108 32.3548 26.7208C32.066 27.6203 31.9927 28.6606 32.1354 29.8416C32.2842 31.0739 32.7543 31.986 33.5459 32.5782C34.3361 33.1599 35.425 33.3671 36.8124 33.1994C37.501 33.1163 38.1847 32.9503 38.8639 32.7016C39.5525 32.4413 40.3046 32.0848 41.1203 31.6321C41.2718 31.5513 41.4005 31.5046 41.5064 31.4917C41.6759 31.4713 41.8104 31.5176 41.9099 31.6305C42.0096 31.7436 42.0713 31.8975 42.0947 32.0927C42.1705 32.7191 41.8767 33.2234 41.2137 33.6056C40.5001 34.0148 39.7448 34.3456 38.9478 34.5981C38.1603 34.8391 37.4011 35.0038 36.6703 35.092Z" fill="#DF291E"/>
<path d="M49.5211 29.9764C49.6586 29.9599 49.7721 30.0086 49.861 30.1228C49.9607 30.2359 50.0234 30.4002 50.0495 30.6158C50.0992 31.0266 50.037 31.357 49.863 31.6073C49.4415 32.2104 48.9925 32.7179 48.5155 33.1297C48.0494 33.5403 47.4879 33.7851 46.8312 33.8644C46.291 33.9297 45.8653 33.83 45.5538 33.5655C45.2414 33.2907 45.0503 32.8656 44.9809 32.2907C44.9462 32.0031 44.9583 31.4807 45.0173 30.7234C45.0769 30.0599 45.0918 29.6049 45.0621 29.3583C45.0422 29.1942 44.974 29.119 44.8574 29.133C44.7198 29.1496 44.5449 29.3479 44.3328 29.7277C44.1195 30.0974 43.92 30.5799 43.734 31.1754C43.5479 31.7709 43.4134 32.3915 43.3301 33.037C43.2281 33.8829 42.78 34.3537 41.9856 34.4497C41.6678 34.4879 41.4429 34.4058 41.311 34.2029C41.1884 33.9885 41.0924 33.5938 41.023 33.0187C40.9832 32.69 40.9569 32.4276 40.9439 32.2312L40.8111 30.997C40.62 29.4156 40.5851 27.7475 40.7064 25.993C40.8382 24.2372 41.1572 22.74 41.6631 21.5016C42.1783 20.2517 42.8915 19.5716 43.8023 19.4617C44.2895 19.4028 44.7063 19.5608 45.0524 19.9358C45.408 20.2992 45.6247 20.8044 45.7029 21.4514C45.8281 22.4885 45.646 23.6045 45.1561 24.7993C44.6652 25.9838 43.8053 27.4056 42.5764 29.0647C42.6091 29.6025 42.6597 30.1538 42.7278 30.7187C42.972 29.8036 43.273 29.0483 43.6309 28.453C43.9982 27.846 44.3741 27.3995 44.7586 27.1134C45.1538 26.826 45.526 26.6613 45.8757 26.619C46.564 26.5358 46.9485 26.8281 47.0292 27.4955C47.0776 27.896 47.0484 28.634 46.942 29.7096C46.8487 30.6272 46.8192 31.23 46.8539 31.5175C46.9036 31.9282 47.082 32.1151 47.3892 32.0779C47.601 32.0524 47.835 31.8992 48.0912 31.618C48.3568 31.3256 48.699 30.8675 49.1181 30.2438C49.2278 30.0847 49.3622 29.9956 49.5211 29.9764ZM43.6529 21.0269C43.4622 21.0499 43.2827 21.3425 43.1141 21.9046C42.9443 22.4564 42.8027 23.1976 42.6894 24.1282C42.5855 25.0471 42.5286 26.0439 42.5186 27.1182C43.0849 26.2893 43.5265 25.4077 43.8433 24.4732C44.171 23.5378 44.2914 22.7106 44.2046 21.9918C44.165 21.6631 44.0975 21.416 44.0022 21.2504C43.9069 21.0848 43.7905 21.0103 43.6529 21.0269Z" fill="#DF291E"/>
<path d="M50.1842 25.0671C49.7394 25.1208 49.394 25.0636 49.1479 24.8954C48.9008 24.7168 48.7555 24.4478 48.712 24.0885C48.6687 23.729 48.7758 23.4138 49.0331 23.1431C49.3 22.8609 49.6505 22.6936 50.0847 22.6411C50.4766 22.5937 50.8054 22.6478 51.0714 22.8033C51.3374 22.9587 51.4908 23.2058 51.5317 23.5447C51.5813 23.9555 51.4834 24.3007 51.2377 24.5804C50.9909 24.8499 50.6397 25.0121 50.1842 25.0671ZM51.0561 33.354C50.3675 33.4371 49.836 33.2619 49.4613 32.8279C49.097 32.3924 48.8677 31.7846 48.7735 31.0043C48.7178 30.5421 48.7046 29.9446 48.7344 29.2117C48.7735 28.4673 48.8504 27.7703 48.9655 27.1209C49.0211 26.7808 49.1208 26.5395 49.2649 26.3971C49.4088 26.2546 49.6556 26.1623 50.0052 26.1201C50.5453 26.0549 50.8364 26.1969 50.8787 26.546C50.9097 26.8028 50.881 27.4105 50.7926 28.3692C50.6747 29.5296 50.64 30.3099 50.6885 30.7105C50.7256 31.0185 50.7966 31.2496 50.9011 31.4036C51.0057 31.5577 51.1586 31.6225 51.3599 31.5982C51.5505 31.5753 51.7733 31.4182 52.0282 31.1269C52.2833 30.8355 52.6156 30.3839 53.0252 29.7718C53.1349 29.6128 53.2693 29.5236 53.4282 29.5044C53.5657 29.4877 53.6792 29.5367 53.7681 29.6508C53.8678 29.7639 53.9307 29.9282 53.9568 30.1438C54.0063 30.5546 53.9441 30.885 53.7702 31.1353C52.8716 32.5045 51.9669 33.2441 51.0561 33.354Z" fill="#DF291E"/>
<path d="M59.6734 28.7504C59.811 28.7338 59.9244 28.7826 60.0134 28.8969C60.1131 29.0098 60.1758 29.1742 60.2019 29.3898C60.2515 29.8005 60.1893 30.1311 60.0153 30.3813C59.6792 30.8907 59.1748 31.384 58.5016 31.8612C57.8391 32.3371 57.1 32.6244 56.2845 32.7229C55.1723 32.8571 54.2738 32.6688 53.5888 32.1576C52.9038 31.6465 52.4999 30.8826 52.3771 29.8659C52.2915 29.1574 52.3659 28.4816 52.5998 27.8387C52.8326 27.1854 53.1973 26.6466 53.6942 26.2219C54.2014 25.796 54.7994 25.5414 55.4878 25.4583C56.1022 25.384 56.6163 25.5043 57.0304 25.8189C57.4433 26.1232 57.6864 26.5784 57.7595 27.1843C57.8451 27.8929 57.654 28.5358 57.1865 29.1132C56.7282 29.679 55.8922 30.1865 54.6784 30.6351C55.0002 31.0754 55.5318 31.2509 56.2732 31.1614C56.7498 31.1038 57.2709 30.8794 57.8361 30.4882C58.4107 30.0854 58.8889 29.5953 59.2704 29.0178C59.3802 28.8587 59.5146 28.7696 59.6734 28.7504ZM55.4001 27.0004C55.0082 27.0476 54.7011 27.3088 54.479 27.7835C54.2677 28.2572 54.1997 28.8071 54.2754 29.4335L54.2791 29.4643C54.8866 29.2452 55.353 28.97 55.6786 28.6389C56.0039 28.3079 56.1436 27.9525 56.0978 27.5725C56.0742 27.3774 55.9974 27.2305 55.8672 27.1315C55.7464 27.021 55.5907 26.9773 55.4001 27.0004Z" fill="#DF291E"/>
<path d="M64.9026 27.2283C65.1992 27.1924 65.3734 27.3902 65.4256 27.8214C65.5235 28.6327 64.9158 29.1176 63.6025 29.2763C63.3483 29.307 62.9772 29.3049 62.4895 29.27C62.704 29.89 62.9009 30.5852 63.0799 31.3553C63.2682 32.1141 63.3927 32.7451 63.4535 33.2481C63.5874 34.3573 63.5044 35.2267 63.2044 35.8569C62.9043 36.487 62.4525 36.8384 61.8489 36.9113C61.0862 37.0035 60.4774 36.5457 60.0226 35.5378C59.5784 34.5288 59.2286 32.9667 58.973 30.8512C58.735 28.8795 58.7109 26.856 58.9008 24.7805C59.1002 22.6936 59.5011 20.9417 60.1036 19.5248C60.7157 18.0965 61.4825 17.3267 62.4039 17.2154C62.9016 17.1553 63.3143 17.3243 63.6418 17.7224C63.9798 18.119 64.1929 18.682 64.281 19.4112C64.5723 21.8243 63.4017 24.6329 60.7689 27.8369C60.7846 28.8561 60.8383 29.7456 60.9301 30.5054C61.0578 31.5632 61.2257 32.642 61.4339 33.7422C61.6431 34.8524 61.8325 35.3974 62.0019 35.377C62.3197 35.3386 62.4141 34.7855 62.2852 33.7174C62.1885 32.9165 62.0364 32.1481 61.8295 31.4126C61.6331 30.6758 61.3893 29.903 61.0981 29.0942C61.0714 28.9621 61.0934 28.7875 61.1638 28.5705C61.245 28.3525 61.3504 28.1573 61.48 27.9854C61.6098 27.8135 61.7328 27.7205 61.8494 27.7064C62.0611 27.6808 62.3167 27.6604 62.6156 27.6451C62.7123 27.6439 62.824 27.6356 62.9511 27.6202C63.3748 27.569 63.8419 27.4762 64.3522 27.3416C64.4357 27.3212 64.5244 27.3 64.6185 27.2782C64.7126 27.2563 64.8073 27.2398 64.9026 27.2283ZM62.2543 18.7806C62.0637 18.8037 61.8633 19.1458 61.653 19.8066C61.4532 20.4663 61.2783 21.3313 61.1281 22.4017C60.9768 23.4619 60.8699 24.5792 60.8075 25.7537C61.542 24.7169 62.0762 23.6678 62.4102 22.6064C62.7428 21.5348 62.8611 20.5568 62.765 19.6724C62.6894 19.0459 62.5192 18.7487 62.2543 18.7806Z" fill="#DF291E"/>
<path d="M37.2264 33.9426C35.966 34.0948 34.8431 34.0064 33.8577 33.6774C32.871 33.3381 32.0792 32.7878 31.4823 32.0264C30.8852 31.2649 30.5209 30.34 30.3895 29.2515C30.2072 27.7419 30.3367 26.3666 30.7777 25.1257C31.2295 23.8834 31.9202 22.8831 32.8493 22.125C33.7774 21.3565 34.8558 20.8982 36.0845 20.7497C37.2284 20.6116 38.1316 20.7942 38.7941 21.2976C39.4555 21.7908 39.8427 22.5047 39.9554 23.4392C40.0311 24.0655 39.9753 24.5828 39.7882 24.991C39.6117 25.3977 39.3116 25.6267 38.888 25.6779C38.5914 25.7137 38.3502 25.6751 38.1647 25.562C37.9791 25.4489 37.8708 25.2642 37.8398 25.0073C37.8287 24.915 37.8294 24.743 37.842 24.4914C37.8683 24.1756 37.8704 23.9253 37.848 23.7405C37.7351 22.8061 37.165 22.4008 36.1377 22.525C35.4386 22.6094 34.798 22.9107 34.2158 23.4289C33.6337 23.9473 33.1988 24.6614 32.911 25.5713C32.6221 26.4711 32.5488 27.5114 32.6915 28.6922C32.8404 29.9245 33.3105 30.8367 34.1019 31.4287C34.8922 32.0105 35.9811 32.2177 37.3686 32.05C38.0569 31.9669 38.7409 31.8009 39.4201 31.5522C40.1086 31.2921 40.8608 30.9355 41.6765 30.4827C41.8279 30.402 41.9565 30.3552 42.0626 30.3423C42.232 30.3219 42.3666 30.3682 42.4661 30.4811C42.5658 30.5942 42.6273 30.7481 42.6509 30.9433C42.7266 31.5697 42.4328 32.0739 41.7698 32.4562C41.0563 32.8653 40.301 33.1963 39.5039 33.4487C38.7164 33.6897 37.9572 33.8544 37.2264 33.9426Z" fill="black"/>
<path d="M50.0771 28.827C50.2148 28.8104 50.3283 28.8592 50.4172 28.9735C50.5169 29.0865 50.5796 29.2508 50.6057 29.4664C50.6554 29.8771 50.5932 30.2078 50.4192 30.4579C49.9976 31.061 49.5485 31.5685 49.0717 31.9803C48.6054 32.3909 48.0441 32.6357 47.3874 32.7151C46.8472 32.7803 46.4215 32.6806 46.11 32.416C45.7976 32.1413 45.6065 31.7164 45.5371 31.1413C45.5024 30.8537 45.5145 30.3314 45.5735 29.574C45.6331 28.9105 45.6479 28.4555 45.6181 28.2091C45.5984 28.0448 45.5302 27.9695 45.4136 27.9836C45.2758 28.0004 45.1011 28.1985 44.889 28.5785C44.6757 28.948 44.4762 29.4305 44.2902 30.026C44.1042 30.6215 43.9696 31.2421 43.8863 31.8876C43.7843 32.7334 43.336 33.2043 42.5418 33.3003C42.224 33.3387 41.9991 33.2564 41.8672 33.0535C41.7446 32.8391 41.6486 32.4444 41.579 31.8693C41.5394 31.5406 41.5131 31.2782 41.5001 31.0818L41.3671 29.8476C41.1762 28.2662 41.1413 26.5983 41.2625 24.8436C41.3944 23.0878 41.7132 21.5906 42.2193 20.3522C42.7345 19.1023 43.4477 18.4224 44.3585 18.3123C44.8457 18.2534 45.2625 18.4114 45.6086 18.7864C45.964 19.1498 46.1809 19.655 46.2591 20.302C46.3843 21.3391 46.202 22.4551 45.7123 23.6499C45.2214 24.8344 44.3615 26.2562 43.1326 27.9153C43.1653 28.4532 43.2157 29.0045 43.284 29.5693C43.528 28.6542 43.829 27.8989 44.1869 27.3036C44.5544 26.6966 44.9303 26.2501 45.3148 25.964C45.7099 25.6765 46.0822 25.5118 46.4319 25.4696C47.1202 25.3864 47.5047 25.6787 47.5854 26.3461C47.6337 26.7466 47.6046 27.4846 47.4982 28.5601C47.4049 29.478 47.3754 30.0806 47.4101 30.3681C47.4598 30.7788 47.6382 30.9657 47.9453 30.9285C48.1572 30.903 48.3912 30.7498 48.6474 30.4688C48.913 30.1762 49.2552 29.7181 49.6743 29.0946C49.784 28.9353 49.9182 28.8462 50.0771 28.827ZM44.209 19.8775C44.0184 19.9005 43.8387 20.1931 43.6703 20.7552C43.5005 21.307 43.3589 22.0482 43.2456 22.9788C43.1417 23.8979 43.0848 24.8945 43.0748 25.9688C43.6409 25.1398 44.0825 24.2583 44.3995 23.324C44.7272 22.3883 44.8475 21.5612 44.7608 20.8424C44.721 20.5137 44.6535 20.2665 44.5584 20.101C44.4631 19.9354 44.3467 19.8609 44.209 19.8775Z" fill="black"/>
<path d="M50.7408 23.9182C50.2961 23.9719 49.9507 23.9146 49.7046 23.7464C49.4575 23.5678 49.3122 23.2989 49.2686 22.9395C49.2253 22.58 49.3322 22.2651 49.5898 21.9944C49.8566 21.712 50.2071 21.5447 50.6413 21.4922C51.0332 21.4448 51.3621 21.4989 51.6281 21.6544C51.894 21.8098 52.0474 22.0569 52.0883 22.3958C52.138 22.8065 52.0399 23.1518 51.7943 23.4315C51.5474 23.701 51.1963 23.8632 50.7408 23.9182ZM51.6127 32.2052C50.9242 32.2884 50.3926 32.1129 50.0178 31.6789C49.6537 31.2437 49.4244 30.6358 49.3301 29.8554C49.2743 29.3932 49.2612 28.7957 49.291 28.0628C49.3301 27.3184 49.4071 26.6214 49.5221 25.972C49.5778 25.6318 49.6775 25.3905 49.8216 25.2482C49.9655 25.1057 50.2122 25.0134 50.5617 24.9713C51.1019 24.906 51.3931 25.0479 51.4354 25.397C51.4664 25.6539 51.4376 26.2615 51.3492 27.2205C51.2314 28.3807 51.1967 29.161 51.2451 29.5615C51.2823 29.8696 51.3531 30.1007 51.4577 30.2548C51.5624 30.4088 51.7152 30.4738 51.9164 30.4495C52.1072 30.4264 52.33 30.2693 52.5848 29.9779C52.8399 29.6868 53.1721 29.235 53.5818 28.6229C53.6915 28.4638 53.8259 28.3747 53.9848 28.3555C54.1224 28.339 54.2358 28.3877 54.3248 28.5021C54.4245 28.615 54.4872 28.7793 54.5132 28.9949C54.5629 29.4057 54.5007 29.7363 54.3267 29.9864C53.4282 31.3555 52.5236 32.0952 51.6127 32.2052Z" fill="black"/>
<path d="M60.2299 27.6009C60.3676 27.5843 60.4811 27.6331 60.57 27.7474C60.6697 27.8604 60.7324 28.0247 60.7585 28.2403C60.8082 28.6511 60.746 28.9817 60.572 29.2318C60.2359 29.7412 59.7312 30.2346 59.0582 30.7117C58.3957 31.1877 57.6567 31.4749 56.8411 31.5734C55.729 31.7076 54.8305 31.5193 54.1455 31.0082C53.4604 30.497 53.0566 29.7331 52.9338 28.7164C52.8482 28.008 52.9225 27.3321 53.1564 26.6892C53.3891 26.0359 53.7539 25.4971 54.2506 25.0724C54.7581 24.6465 55.3559 24.392 56.0444 24.3088C56.6586 24.2347 57.173 24.3548 57.5871 24.6694C58 24.9738 58.2428 25.4289 58.3161 26.0348C58.4017 26.7434 58.2106 27.3864 57.7431 27.9637C57.2848 28.5297 56.4489 29.037 55.2351 29.4856C55.5569 29.9261 56.0885 30.1016 56.8298 30.0119C57.3065 29.9543 57.8275 29.7299 58.3927 29.3387C58.9673 28.9359 59.4454 28.4458 59.8271 27.8685C59.9368 27.7092 60.071 27.6201 60.2299 27.6009ZM55.9565 25.8509C55.5648 25.8983 55.2578 26.1594 55.0357 26.6342C54.8243 27.1077 54.7563 27.6576 54.8321 28.2841L54.8358 28.315C55.4433 28.0957 55.9097 27.8205 56.235 27.4896C56.5605 27.1584 56.7002 26.803 56.6544 26.423C56.6308 26.2279 56.554 26.081 56.4238 25.982C56.303 25.8715 56.1473 25.8279 55.9565 25.8509Z" fill="black"/>
<path d="M65.4588 26.0789C65.7553 26.043 65.9296 26.2408 65.9818 26.6721C66.0797 27.4833 65.472 27.9682 64.1587 28.1269C63.9044 28.1575 63.5334 28.1554 63.0457 28.1205C63.2602 28.7407 63.457 29.4358 63.6361 30.206C63.8244 30.9647 63.9489 31.5956 64.0097 32.0987C64.1436 33.2078 64.0606 34.0774 63.7605 34.7075C63.4605 35.3376 63.0087 35.6891 62.4049 35.7621C61.6424 35.854 61.0336 35.3962 60.5788 34.3885C60.1346 33.3794 59.7848 31.8172 59.5292 29.7018C59.2911 27.73 59.2671 25.7065 59.457 23.6311C59.6564 21.5441 60.0573 19.7922 60.6599 18.3755C61.2718 16.9471 62.0385 16.1773 62.9601 16.066C63.4579 16.0059 63.8706 16.1749 64.198 16.5729C64.536 16.9697 64.749 17.5326 64.837 18.2618C65.1286 20.6749 63.9579 23.4834 61.3251 26.6875C61.3408 27.7066 61.3945 28.5961 61.4863 29.356C61.614 30.4137 61.7819 31.4926 61.9899 32.5928C62.1993 33.7031 62.3887 34.2479 62.5581 34.2275C62.8759 34.1891 62.9703 33.636 62.8414 32.5681C62.7445 31.767 62.5927 30.9989 62.3857 30.2633C62.1893 29.5263 61.9455 28.7536 61.6544 27.9447C61.6276 27.8126 61.6496 27.6381 61.7201 27.4211C61.8011 27.203 61.9066 27.0079 62.0362 26.8359C62.1659 26.664 62.289 26.571 62.4056 26.5569C62.6173 26.5314 62.8727 26.511 63.1718 26.4956C63.2683 26.4944 63.3802 26.4861 63.5074 26.4708C63.931 26.4195 64.3979 26.3267 64.9082 26.1921C64.9917 26.1717 65.0806 26.1506 65.1747 26.1287C65.2688 26.1071 65.3633 26.0903 65.4588 26.0789ZM62.8105 17.6313C62.62 17.6542 62.4195 17.9963 62.209 18.6572C62.0095 19.3168 61.8344 20.1819 61.6843 21.2523C61.533 22.3125 61.4261 23.4297 61.3637 24.6042C62.0982 23.5675 62.6325 22.5184 62.9662 21.4569C63.299 20.3853 63.4173 19.4074 63.3212 18.523C63.2456 17.8964 63.0753 17.5993 62.8105 17.6313Z" fill="black"/>
<path d="M60.6511 31.6041L28.7848 35.7866C28.7559 35.7904 28.7355 35.8169 28.7393 35.8458L29.244 39.6915C29.2478 39.7205 29.2744 39.7408 29.3033 39.737L61.1696 35.5546C61.1985 35.5508 61.2189 35.5243 61.2151 35.4953L60.7103 31.6496C60.7065 31.6207 60.68 31.6003 60.6511 31.6041Z" fill="#DF291E"/>
<path d="M60.4767 29.7059L29.174 33.8144C29.145 33.8182 29.1247 33.8447 29.1285 33.8737L29.7624 38.704C29.7662 38.733 29.7928 38.7534 29.8217 38.7496L61.1244 34.6411C61.1533 34.6373 61.1737 34.6107 61.1699 34.5818L60.5359 29.7514C60.5321 29.7225 60.5056 29.7021 60.4767 29.7059Z" fill="black"/>
<path d="M34.8587 36.1089L34.9703 36.96L34.4645 37.0264L34.4114 36.6218L33.0929 36.7948L33.1459 37.1994L32.6402 37.2658L32.5283 36.4147L32.6051 36.4046C32.721 36.387 32.7924 36.3079 32.8188 36.1672C32.8454 36.0265 32.848 35.831 32.8271 35.5807L32.7663 34.9286L34.4023 34.7139L34.5901 36.1441L34.8587 36.1089ZM33.3239 35.5544C33.3419 35.7461 33.3472 35.9039 33.34 36.0279C33.3349 36.1515 33.3062 36.2488 33.254 36.3194L34.0458 36.2155L33.9167 35.2317L33.3028 35.3124L33.3239 35.5544Z" fill="white"/>
<path d="M36.1425 36.4234C35.9449 36.4493 35.7617 36.432 35.5928 36.3713C35.426 36.308 35.2888 36.209 35.1811 36.0741C35.0737 35.9392 35.0076 35.7787 34.9832 35.5925C34.9588 35.4065 34.981 35.2344 35.0503 35.0764C35.1195 34.9183 35.2266 34.7883 35.3717 34.6865C35.5188 34.582 35.6912 34.5167 35.8889 34.4908C36.0867 34.4649 36.2688 34.4836 36.4356 34.5468C36.6021 34.6077 36.7393 34.7057 36.8467 34.8406C36.9543 34.9755 37.0204 35.136 37.0449 35.322C37.0692 35.508 37.0468 35.6801 36.9778 35.8383C36.9086 35.9964 36.8016 36.1275 36.6568 36.2318C36.5117 36.3336 36.3403 36.3975 36.1425 36.4234ZM36.084 35.9769C36.2235 35.9586 36.3313 35.8971 36.4076 35.7925C36.4856 35.6852 36.5143 35.5526 36.4937 35.3944C36.473 35.2362 36.4111 35.1166 36.3081 35.0354C36.2073 34.9517 36.087 34.919 35.9475 34.9373C35.808 34.9556 35.6992 35.0185 35.621 35.1256C35.5424 35.2306 35.5135 35.3621 35.5343 35.5203C35.5551 35.6785 35.6171 35.7992 35.7203 35.8826C35.8232 35.9638 35.9444 35.9952 36.084 35.9769Z" fill="white"/>
<path d="M38.4393 36.122C38.2392 36.1482 38.0537 36.1311 37.8825 36.0707C37.7134 36.0078 37.5739 35.909 37.464 35.7745C37.3564 35.6395 37.2903 35.4791 37.2658 35.2931C37.2415 35.1069 37.2639 34.9348 37.333 34.7768C37.4045 34.6183 37.5139 34.4881 37.6613 34.3859C37.8108 34.2811 37.9856 34.2156 38.1856 34.1894C38.3833 34.1635 38.5608 34.1827 38.7183 34.2471C38.8779 34.309 39.0014 34.4124 39.0891 34.557L38.6966 34.8392C38.5763 34.6797 38.4245 34.6123 38.2408 34.6364C38.0988 34.6549 37.9875 34.7169 37.9066 34.8221C37.8258 34.9274 37.796 35.0602 37.817 35.2207C37.8381 35.3811 37.9012 35.5018 38.0065 35.5826C38.1117 35.6633 38.2353 35.6945 38.3771 35.6758C38.5631 35.6515 38.6926 35.5469 38.7653 35.3623L39.2177 35.5372C39.1697 35.6948 39.0769 35.8254 38.939 35.9286C38.8036 36.0316 38.6369 36.0959 38.4393 36.122Z" fill="white"/>
<path d="M40.9887 34.3039L40.3538 34.3873L40.5416 35.8175L40.0009 35.8885L39.8131 34.4582L39.1783 34.5416L39.1196 34.095L40.9302 33.8574L40.9887 34.3039Z" fill="white"/>
<path d="M41.9456 33.6956C42.2362 33.6573 42.4688 33.6978 42.6428 33.8169C42.8166 33.9337 42.922 34.1317 42.9586 34.4107L43.0992 35.4816L42.5898 35.5484L42.5591 35.3148C42.4797 35.5026 42.3004 35.6148 42.0214 35.6514C41.8771 35.6705 41.7483 35.6625 41.6351 35.6276C41.5239 35.5926 41.4348 35.5357 41.3677 35.457C41.3006 35.3782 41.2599 35.2842 41.2456 35.175C41.2227 35.0004 41.2698 34.8547 41.3869 34.7376C41.5063 34.6201 41.7032 34.5435 41.9777 34.5076L42.4103 34.4507C42.3946 34.3321 42.3467 34.2462 42.2664 34.1928C42.1857 34.1371 42.0733 34.1188 41.9291 34.1377C41.8292 34.1509 41.7325 34.1801 41.639 34.2254C41.5477 34.2682 41.4718 34.3207 41.4114 34.383L41.166 34.0285C41.2588 33.943 41.3737 33.8712 41.5104 33.813C41.6493 33.7546 41.7945 33.7155 41.9456 33.6956ZM42.1092 35.2673C42.2024 35.2551 42.2822 35.2234 42.3488 35.172C42.415 35.1184 42.4578 35.0478 42.477 34.9601L42.4518 34.7681L42.0786 34.8172C41.8554 34.8465 41.7534 34.9344 41.7726 35.0809C41.7818 35.1507 41.8158 35.203 41.8748 35.2379C41.9358 35.2699 42.014 35.2798 42.1092 35.2673Z" fill="white"/>
<path d="M44.8771 34.2514C45.1077 34.2968 45.2379 34.4312 45.2671 34.6544C45.2893 34.8242 45.2426 34.964 45.1269 35.0738C45.0114 35.1837 44.8268 35.2552 44.5731 35.2885L43.5719 35.4199L43.3257 33.5431L44.2849 33.4172C44.5199 33.3863 44.7093 33.4052 44.8532 33.4739C44.9967 33.5403 45.0785 33.6502 45.0987 33.8036C45.1109 33.8966 45.0973 33.9824 45.0579 34.061C45.0205 34.1367 44.9603 34.2003 44.8771 34.2514ZM43.9258 34.2486L44.3373 34.1945C44.528 34.1695 44.6145 34.0895 44.5969 33.9546C44.5795 33.8221 44.4754 33.7684 44.2848 33.7934L43.8731 33.8473L43.9258 34.2486ZM44.4792 34.9246C44.6793 34.8983 44.7702 34.8166 44.7522 34.6794C44.7429 34.6074 44.7126 34.558 44.6619 34.5316C44.6108 34.5029 44.5352 34.495 44.4352 34.5082L43.9679 34.5695L44.0223 34.9847L44.4792 34.9246Z" fill="white"/>
<path d="M46.4753 34.3148L46.1928 34.3518L46.2861 35.0634L45.7419 35.1349L45.4956 33.2581L46.0397 33.1866L46.1355 33.9157L46.4284 33.8773L46.842 33.0813L47.4212 33.0054L46.8834 33.9914L47.7129 34.8762L47.071 34.9604L46.4753 34.3148Z" fill="white"/>
<path d="M48.4249 32.8455C48.7157 32.8072 48.9481 32.8478 49.1223 32.9668C49.2961 33.0836 49.4013 33.2814 49.4379 33.5606L49.5785 34.6315L49.0693 34.6983L49.0386 34.4646C48.9592 34.6525 48.7799 34.7647 48.5008 34.8013C48.3566 34.8204 48.2278 34.8123 48.1144 34.7776C48.0033 34.7425 47.9143 34.6856 47.8472 34.6069C47.7801 34.5281 47.7394 34.4341 47.7249 34.3247C47.702 34.1503 47.7493 34.0046 47.8662 33.8875C47.9856 33.77 48.1826 33.6934 48.457 33.6573L48.8896 33.6006C48.8741 33.482 48.8262 33.3961 48.7459 33.3427C48.6652 33.287 48.5528 33.2687 48.4086 33.2876C48.3085 33.3008 48.2118 33.33 48.1184 33.3753C48.027 33.4181 47.9511 33.4706 47.8907 33.5329L47.6455 33.1784C47.7383 33.0929 47.8532 33.0211 47.9899 32.9629C48.1288 32.9045 48.2738 32.8652 48.4249 32.8455ZM48.5887 34.4172C48.6817 34.405 48.7615 34.3733 48.8281 34.3219C48.8945 34.2683 48.9371 34.1975 48.9565 34.11L48.9313 33.918L48.5581 33.967C48.3347 33.9964 48.2328 34.0843 48.252 34.2308C48.2611 34.3006 48.2953 34.3529 48.3541 34.3878C48.4152 34.4198 48.4935 34.4297 48.5887 34.4172Z" fill="white"/>
<path d="M52.7418 33.269C52.7429 33.2761 52.7457 33.3254 52.7506 33.417L51.3309 33.6034C51.3718 33.7163 51.4442 33.8001 51.5484 33.8551C51.6527 33.91 51.7757 33.9282 51.9175 33.9095C52.0152 33.8966 52.0994 33.8714 52.1702 33.8337C52.243 33.7934 52.3078 33.7378 52.3647 33.6664L52.6955 33.9423C52.5452 34.1679 52.3004 34.3028 51.9608 34.3474C51.7492 34.3752 51.5565 34.359 51.3832 34.2991C51.2094 34.2368 51.0686 34.1381 50.961 34.0032C50.8534 33.8683 50.7875 33.7078 50.763 33.5216C50.7389 33.3379 50.7602 33.1672 50.8271 33.0094C50.896 32.8489 51.0006 32.7181 51.141 32.617C51.2835 32.513 51.4491 32.4488 51.6374 32.4239C51.8211 32.4 51.9925 32.4176 52.1517 32.4771C52.311 32.5366 52.4422 32.6353 52.5456 32.7732C52.6507 32.9085 52.7163 33.0737 52.7418 33.269ZM51.695 32.8352C51.5717 32.8514 51.4727 32.8999 51.3982 32.9805C51.3237 33.0614 51.2849 33.1634 51.2823 33.2868L52.2067 33.1655C52.1725 33.0492 52.1089 32.9619 52.0161 32.903C51.9229 32.8419 51.8158 32.8194 51.695 32.8352Z" fill="white"/>
<path d="M55.3092 33.4251L55.421 34.2764L54.9151 34.3428L54.8621 33.9381L53.5434 34.1112L53.5966 34.5158L53.0907 34.5822L52.979 33.7311L53.0558 33.7211C53.1717 33.7034 53.243 33.6243 53.2695 33.4836C53.2959 33.3429 53.2987 33.1474 53.2776 32.8971L53.2168 32.245L54.853 32.0303L55.0407 33.4605L55.3092 33.4251ZM53.7745 32.8708C53.7926 33.0625 53.7979 33.2203 53.7905 33.3443C53.7854 33.4679 53.7568 33.5652 53.7045 33.6358L54.4965 33.5319L54.3673 32.5481L53.7533 32.6288L53.7745 32.8708Z" fill="white"/>
<path d="M56.5299 32.4206C56.7744 32.3908 56.9663 32.4213 57.106 32.5118C57.2457 32.6022 57.3285 32.7475 57.3547 32.9476C57.3822 33.1569 57.3325 33.3277 57.2057 33.4603C57.0787 33.593 56.8851 33.6763 56.6246 33.7105L55.7101 33.8269L55.4639 31.9501L56.0046 31.8791L56.0834 32.4792L56.5299 32.4206ZM57.3965 31.6965L57.9371 31.6255L58.1835 33.5023L57.6427 33.5733L57.3965 31.6965ZM56.5249 33.3297C56.6299 33.3182 56.7072 33.2856 56.7569 33.2317C56.8066 33.178 56.8254 33.1045 56.8133 33.0115C56.8013 32.9208 56.7647 32.8581 56.7034 32.8236C56.6444 32.7889 56.5612 32.7773 56.454 32.7889L56.1292 32.828L56.2005 33.3723L56.5249 33.3297Z" fill="white"/>
</svg>
